<svg width="1077" height="1077" viewBox="0 0 1077 1077" fill="none" xmlns="http://www.w3.org/2000/svg">
<path fill-rule="evenodd" clip-rule="evenodd" d="M538.5 201.938C556.346 201.953 573.456 209.055 586.067 221.683L810.442 446.057C822.333 458.818 828.806 475.695 828.498 493.133C828.19 510.572 821.126 527.21 808.793 539.543C796.46 551.876 779.822 558.94 762.383 559.248C744.945 559.556 728.068 553.083 715.307 541.193L538.5 364.475L361.692 541.282C348.991 553.538 331.985 560.315 314.336 560.153C296.687 559.991 279.807 552.904 267.333 540.418C254.858 527.932 247.787 511.046 247.642 493.396C247.497 475.747 254.29 458.747 266.557 446.057L490.932 221.683C503.544 209.055 520.654 201.953 538.5 201.938ZM538.5 471.188C556.346 471.203 573.456 478.305 586.067 490.932L810.442 715.307C822.333 728.068 828.806 744.945 828.498 762.383C828.19 779.822 821.126 796.46 808.793 808.793C796.46 821.126 779.822 828.19 762.383 828.498C744.945 828.806 728.068 822.333 715.307 810.442L538.5 633.725L361.692 810.532C348.991 822.788 331.985 829.565 314.336 829.403C296.687 829.242 279.807 822.154 267.333 809.668C254.858 797.182 247.787 780.296 247.642 762.646C247.497 744.997 254.29 727.997 266.557 715.307L490.932 490.932C503.544 478.305 520.654 471.203 538.5 471.188Z" fill="#63FFF7"/>
</svg>
