<svg width="85" height="72" viewBox="0 0 85 72" fill="none" xmlns="http://www.w3.org/2000/svg">
<path fill-rule="evenodd" clip-rule="evenodd" d="M24.4315 0.0563505C30.3815 0.487422 36.5865 3.39564 42.5243 9.26671C48.4622 3.38956 54.6611 0.493493 60.6051 0.0745649C67.3201 -0.405078 73.2518 2.30885 77.5443 6.58921C85.9836 15.0042 88.6368 30.2374 78.1636 40.7106L78.0543 40.8139L44.5643 71.1528C44.0058 71.6596 43.2786 71.9404 42.5243 71.9404C41.7701 71.9404 41.0429 71.6596 40.4843 71.1528L6.99434 40.8139L6.88506 40.7106C-3.6428 30.1828 -1.0078 14.9496 7.46184 6.54064C11.7665 2.26635 17.7104 -0.429364 24.4315 0.0563505Z" fill="#FFFFFF" stroke="#DD4040" stroke-width="4"/>
</svg>
